<?xml version="1.0" encoding="UTF-8" standalone="no"?>
<!-- Created with Inkscape (http://www.inkscape.org/) -->

<svg
   width="210mm"
   height="297mm"
   viewBox="0 0 210 297"
   version="1.1"
   id="svg5"
   inkscape:version="1.1.2 (0a00cf5339, 2022-02-04)"
   sodipodi:docname="osologic.svg"
   xmlns:inkscape="http://www.inkscape.org/namespaces/inkscape"
   xmlns:sodipodi="http://sodipodi.sourceforge.net/DTD/sodipodi-0.dtd"
   xmlns="http://www.w3.org/2000/svg"
   xmlns:svg="http://www.w3.org/2000/svg">
  <sodipodi:namedview
     id="namedview7"
     pagecolor="#ffffff"
     bordercolor="#000000"
     borderopacity="0.25"
     inkscape:pageshadow="2"
     inkscape:pageopacity="0.0"
     inkscape:pagecheckerboard="0"
     inkscape:document-units="mm"
     showgrid="false"
     inkscape:zoom="0.69664703"
     inkscape:cx="511.73692"
     inkscape:cy="560.54212"
     inkscape:window-width="1920"
     inkscape:window-height="1016"
     inkscape:window-x="0"
     inkscape:window-y="0"
     inkscape:window-maximized="1"
     inkscape:current-layer="layer1" />
  <defs
     id="defs2">
    <rect
       x="128.28748"
       y="375.58812"
       width="188.23422"
       height="16.95622"
       id="rect6331" />
  </defs>
  <g
     inkscape:label="Layer 1"
     inkscape:groupmode="layer"
     id="layer1">
    <path
       style="fill:#800000;stroke-width:0.304439"
       d="M 80.537878,89.583585 C 62.322275,83.223862 50.690496,76.152956 47.23871,69.341183 46.19335,67.278255 45.75168,64.460396 45.992998,61.393492 46.591824,53.783041 49.541792,44.017945 53.199917,37.536865 l 1.522907,-2.698124 -0.610839,-0.650708 c -1.921929,-2.047348 -2.446211,-6.090462 -1.150557,-8.872767 1.315134,-2.824131 3.77209,-4.436102 7.089526,-4.651316 1.861741,-0.120783 2.413977,-0.03072 3.8528,0.627936 0.923753,0.422916 2.213799,1.319445 2.866773,1.99229 l 1.187226,1.223356 2.114304,-0.587204 c 3.860531,-1.072185 10.315054,-1.25662 14.232875,-0.406692 0.727224,0.157764 1.094841,-0.04211 2.47069,-1.343332 1.796222,-1.698787 2.822635,-2.034933 5.528469,-1.810548 4.21251,0.349333 6.876748,4.862838 5.086475,8.617062 -0.415874,0.872112 -0.447033,1.19635 -0.154588,1.608634 1.01616,1.432564 2.286324,4.295137 2.776932,6.258397 0.30234,1.209882 0.71126,2.501642 0.90871,2.87057 0.41804,0.781121 2.04966,1.675084 3.99362,2.188094 4.7797,1.261373 6.17095,4.429751 4.40282,10.026855 -1.87407,5.932491 -6.50368,10.475406 -12.888321,12.646966 -3.031912,1.031222 -3.916164,1.63091 -4.654883,3.156917 l -0.643758,1.329812 0.650213,3.858092 c 0.970825,5.760437 0.796596,8.085732 -0.858524,11.457474 -3.116484,5.149138 -5.161404,7.028678 -10.384909,5.204956 z M 98.890707,59.165747 c 1.569953,-0.768106 3.282873,-2.302789 3.282873,-2.941276 0,-0.138203 -0.65074,-0.04223 -1.44609,0.21335 -2.053621,0.659855 -7.300817,0.651582 -9.818153,-0.01542 -3.819902,-1.012202 -7.247047,-3.277228 -8.827202,-5.833986 -0.973829,-1.57568 -2.638718,-1.788812 -3.365494,-0.43082 -0.251931,0.470736 -0.13994,0.927504 0.53309,2.174125 1.200688,2.223994 3.551585,4.463061 6.0822,5.792862 2.994793,1.573712 5.11531,2.047429 8.77784,1.960935 2.630249,-0.06213 3.285777,-0.188221 4.780936,-0.919725 z m 7.139923,-9.78827 c 0.77937,-0.779359 1.03073,-1.270255 0.95898,-1.872843 l -0.0972,-0.816628 -2.89217,-0.05224 c -1.5907,-0.02865 -3.06342,0.07732 -3.27273,0.235707 -0.66247,0.501206 -0.41469,1.457867 0.65455,2.527095 0.84856,0.84857 1.2655,1.035099 2.31373,1.035099 1.05325,0 1.46484,-0.186195 2.33486,-1.056214 z M 77.824565,42.667352 c 2.70328,-1.397918 1.625261,-5.639942 -1.428766,-5.622199 -2.923995,0.01703 -4.136488,3.414326 -1.89245,5.302553 1.055466,0.888129 2.038868,0.982769 3.321216,0.319646 z m 17.251187,-2.028765 c 0.965406,-0.906954 0.94611,-2.473072 -0.04269,-3.461825 -1.005391,-1.00539 -2.135683,-0.955545 -3.233861,0.142645 -1.098177,1.098177 -1.148035,2.228469 -0.142644,3.23386 0.955614,0.955614 2.453005,0.992975 3.419159,0.08538 z m 23.880978,48.41307 c -2.2257,-0.640259 -3.99672,-2.894031 -3.99672,-5.086153 0,-0.920565 -0.23117,-1.13219 -3.69536,-3.382959 l -3.69537,-2.400962 -1.09504,0.586905 c -1.92583,1.032177 -4.26278,0.686331 -5.93646,-0.878545 -3.978905,-3.720245 -0.30401,-10.301097 4.91933,-8.809275 l 1.43528,0.409925 3.99483,-2.60246 c 3.96498,-2.583016 3.9965,-2.612656 4.21505,-3.9654 0.45155,-2.794824 3.93576,-5.090019 6.54167,-4.309267 3.18019,0.952806 4.79254,4.183226 3.56013,7.132822 -0.45761,1.095186 -2.4084,2.953738 -3.10033,2.953738 -0.37389,0 -0.44452,0.800486 -0.43645,4.947134 l 0.009,4.947133 1.34252,0.814397 c 3.11674,1.890654 3.45833,5.808671 0.72949,8.367155 -0.83498,0.782857 -2.93628,1.711478 -3.61345,1.596874 -0.0838,-0.01415 -0.61417,-0.158638 -1.17876,-0.321062 z m 3.11654,-3.32514 c 1.55888,-1.22622 0.86203,-3.907787 -1.14651,-4.411904 -1.64436,-0.412698 -3.52105,1.3935 -3.1177,3.000581 0.48077,1.915555 2.69256,2.647577 4.26421,1.411323 z m -5.02919,-6.017143 c 0.44446,-0.307646 1.04785,-0.645829 1.34087,-0.751549 0.47867,-0.172688 0.53109,-0.695525 0.51624,-5.148886 l -0.0166,-4.956695 -1.42955,-0.927067 -1.42956,-0.927067 -3.55505,2.36436 -3.55504,2.364348 0.30829,1.116542 c 0.16956,0.614094 0.22802,1.544406 0.12992,2.067347 -0.17445,0.929886 -0.1031,0.998878 3.24676,3.137471 1.88382,1.202667 3.47247,2.194285 3.53034,2.203605 0.0579,0.0092 0.46887,-0.234776 0.91332,-0.542409 z M 105.9929,75.868185 c 1.04745,-1.047446 0.9928,-2.40286 -0.14263,-3.538307 -1.10367,-1.103666 -2.12143,-1.134584 -3.34889,-0.101716 -1.85609,1.561792 -0.79278,4.387303 1.65106,4.387303 0.75477,0 1.32454,-0.231335 1.84046,-0.747257 z m 16.08773,-10.288658 c 1.71546,-1.543394 0.63237,-4.49047 -1.6503,-4.49047 -1.21218,0 -2.73037,1.438881 -2.73037,2.587733 0,1.132053 1.51858,2.587733 2.69956,2.587733 0.52528,0 1.2463,-0.293792 1.68111,-0.684996 z"
       id="path836"
       sodipodi:nodetypes="cssscssssscsssssssssssscsccssssssssssssscscsssssssssssssscsscssscsssssccsssccssssssccccccssssssssssssssss" />
    <text
       xml:space="preserve"
       style="font-weight:bold;font-stretch:expanded;font-size:14.1773px;font-family:'Eurostile LT Std';-inkscape-font-specification:'Eurostile LT Std Bold Expanded';fill:#000000;stroke-width:5.83168"
       x="33.71196"
       y="105.95931"
       id="text3621"><tspan
         id="tspan3619"
         style="stroke-width:5.83168"
         x="33.71196"
         y="105.95931"
         sodipodi:role="line">OS<tspan
   style="fill:#4d4d4d"
   id="tspan17875">O</tspan><tspan
   style="font-style:normal;font-variant:normal;font-weight:normal;font-stretch:expanded;font-family:'Eurostile LT Std';-inkscape-font-specification:'Eurostile LT Std Expanded'"
   id="tspan8165">LOGIC</tspan><tspan
   style="font-style:normal;font-variant:normal;font-weight:normal;font-stretch:expanded;font-size:7.05556px;font-family:'Eurostile LT Std';-inkscape-font-specification:'Eurostile LT Std Expanded'"
   id="tspan33699" /></tspan></text>
    <text
       xml:space="preserve"
       transform="scale(0.26458333)"
       id="text6329"
       style="fill:#000000;-inkscape-font-specification:'Eurostile LT Std Bold Expanded';font-family:'Eurostile LT Std';stroke-width:4.93606299;font-stretch:expanded;font-weight:bold;white-space:pre;shape-inside:url(#rect6331)" />
    <text
       xml:space="preserve"
       style="font-style:normal;font-variant:normal;font-weight:normal;font-stretch:expanded;font-size:7.05556px;font-family:'Eurostile LT Std';-inkscape-font-specification:'Eurostile LT Std Expanded';fill:#000000;stroke-width:1.306"
       x="140.96788"
       y="100.52263"
       id="text45842"><tspan
         sodipodi:role="line"
         id="tspan45840"
         style="fill:#000000;stroke-width:1.306"
         x="140.96788"
         y="100.52263">®</tspan></text>
  </g>
</svg>
